{"glyphs":{":":{"x_min":0,"x_max":299,"ha":299,"o":"m 131 259 q 111 259 97 273 q 83 288 83 309 q 83 328 97 342 q 112 356 131 356 q 151 356 165 342 q 179 328 179 309 q 179 287 166 273 q 152 259 131 259 z m 61 -9 q 41 -9 27 5 q 13 19 13 40 q 13 59 27 73 q 42 87 61 87 q 81 87 95 73 q 110 59 110 40 q 110 19 96 5 q 83 -9 61 -9 z"},"$":{"x_min":0,"x_max":551,"ha":551,"o":"m 217 413 l 278 645 q 208 641 169 608 q 131 575 131 519 q 131 482 153 455 q 175 427 217 413 z m 238 405 q 257 398 280 390 q 302 382 327 372 l 390 623 q 369 633 346 639 q 324 645 301 646 z m 338 289 l 269 25 q 337 25 386 67 q 434 110 434 167 q 434 207 410 238 q 386 268 338 289 z m 155 56 q 176 45 198 38 q 221 31 246 28 l 316 299 q 308 302 291 310 q 249 326 228 334 z m 118 5 q 62 24 36 69 q 9 113 9 186 q 9 206 12 216 q 15 226 21 226 q 30 226 39 200 q 42 187 45 180 q 62 138 84 110 q 106 82 134 68 l 203 341 q 146 361 117 397 q 87 433 87 481 q 87 555 142 612 q 198 668 288 684 q 299 723 307 760 q 315 797 320 833 l 359 833 q 346 798 334 760 q 322 723 311 684 l 320 684 q 341 684 361 681 q 382 678 404 672 q 417 715 425 755 q 434 795 438 833 l 478 833 q 463 793 450 751 q 438 708 427 664 q 464 642 483 608 q 502 574 502 527 q 502 513 500 507 q 497 500 492 500 q 486 500 466 541 q 445 582 411 609 l 349 364 q 412 337 445 299 q 477 260 477 211 q 477 127 417 66 q 357 5 261 -9 l 229 -133 q 227 -142 222 -146 q 218 -151 213 -151 q 209 -151 207 -148 q 204 -145 204 -139 q 204 -137 205 -134 q 205 -131 207 -125 l 237 -9 q 233 -9 225 -9 q 218 -10 214 -10 q 199 -10 182 -8 q 166 -7 143 -3 l 110 -132 q 108 -141 103 -145 q 98 -150 92 -150 q 87 -150 85 -147 q 83 -144 83 -138 q 83 -134 83 -130 q 84 -127 85 -124 z"},"?":{"x_min":0,"x_max":468,"ha":468,"o":"m 442 556 q 442 508 417 470 q 391 433 317 380 q 298 367 265 345 q 171 283 171 245 q 171 229 179 207 q 188 185 188 180 q 188 177 186 176 q 185 174 181 174 q 170 174 154 205 q 138 236 138 271 q 138 339 247 411 q 258 418 264 422 l 271 427 q 414 521 414 583 q 414 624 383 652 q 351 679 303 679 q 243 679 196 645 q 150 611 150 569 q 150 553 154 533 q 158 514 158 512 q 158 509 156 507 q 153 505 150 505 q 142 505 125 541 q 108 577 108 605 q 108 651 156 687 q 203 722 268 722 q 343 722 393 675 q 442 627 442 556 z m 132 -9 q 112 -9 98 5 q 84 19 84 40 q 84 59 98 73 q 113 87 132 87 q 152 87 166 73 q 180 59 180 40 q 180 19 167 5 q 153 -9 132 -9 z"},"<":{"x_min":0,"x_max":833,"ha":833,"o":"m 704 554 l 704 501 l 205 298 l 704 96 l 704 43 l 129 278 l 129 318 z"},"'":{"x_min":0,"x_max":169,"ha":169,"o":"m 92 424 l 77 424 l 47 646 q 47 647 47 648 q 45 660 45 666 q 45 689 55 701 q 65 714 84 714 q 103 714 113 702 q 123 690 123 667 q 123 659 123 655 q 123 650 122 646 z"},"=":{"x_min":0,"x_max":833,"ha":833,"o":"m 124 231 l 709 231 l 709 183 l 124 183 z m 124 413 l 709 413 l 709 365 l 124 365 z"},"a":{"x_min":0,"x_max":468,"ha":468,"o":"m 297 309 q 291 310 281 310 q 237 313 221 313 q 180 313 150 302 q 120 292 100 269 q 70 235 54 193 q 37 150 37 108 q 37 73 55 54 q 72 36 106 36 q 171 36 221 107 q 271 179 297 309 z m 245 104 q 201 45 157 16 q 113 -14 71 -14 q 26 -14 -2 15 q -30 44 -30 92 q -30 138 -6 184 q 18 230 62 269 q 112 314 171 338 q 230 363 288 363 q 312 363 333 359 q 355 354 376 346 l 331 199 q 312 135 304 102 q 296 68 296 52 q 296 45 300 40 q 305 34 310 34 q 323 34 344 59 q 365 84 371 84 q 373 84 375 83 q 377 81 377 79 q 377 73 369 60 q 361 46 348 32 q 329 10 310 -1 q 292 -13 275 -13 q 257 -13 246 -1 q 236 12 236 34 q 236 47 238 65 q 241 83 245 104 z"},"L":{"x_min":0,"x_max":597,"ha":597,"o":"m 197 512 q 199 521 206 551 q 212 581 231 672 q 162 681 141 687 q 121 693 121 701 q 121 706 124 708 q 127 711 134 711 q 138 711 154 709 q 217 701 274 701 q 332 701 396 709 q 411 711 415 711 q 422 711 426 708 q 429 706 429 701 q 429 692 405 686 q 380 680 312 672 q 298 627 285 583 q 273 540 262 497 l 186 191 q 181 174 154 40 l 152 31 q 191 28 217 27 q 242 26 260 26 q 323 26 375 35 q 428 44 474 62 l 494 112 q 505 141 510 148 q 515 156 520 156 q 525 156 526 154 q 528 152 528 146 q 528 140 515 101 q 501 62 494 28 q 489 5 485 -27 q 480 -61 472 -61 q 467 -61 464 -55 q 461 -48 461 -37 q 461 -35 461 -30 q 462 -25 462 -23 q 416 -11 352 -4 q 289 2 213 2 l 107 2 q 68 2 26 -3 q -16 -8 -19 -8 q -26 -8 -30 -5 q -33 -3 -33 2 q -33 15 66 30 l 71 31 q 88 87 100 128 q 111 169 120 205 z"},"3":{"x_min":0,"x_max":551,"ha":551,"o":"m 384 406 q 428 391 452 358 q 475 326 475 279 q 475 237 458 193 q 440 149 407 108 q 358 46 293 14 q 229 -18 154 -18 q 81 -18 32 14 q -16 46 -16 93 q -16 113 -7 143 q 3 172 21 210 q 32 233 38 242 q 44 251 50 251 q 54 251 56 249 q 58 247 58 243 q 58 242 57 239 q 56 236 55 232 l 40 192 q 36 179 33 168 q 31 157 31 146 q 31 102 88 67 q 145 32 220 32 q 302 32 359 89 q 415 146 415 227 q 415 292 377 326 q 340 360 269 360 q 231 360 194 350 q 156 341 155 341 q 152 341 150 344 q 148 347 148 351 q 148 368 202 393 q 256 417 313 417 q 325 417 335 416 q 346 415 357 412 q 403 439 427 474 q 450 508 450 547 q 450 588 423 610 q 396 632 347 632 q 310 632 272 621 q 235 611 201 591 q 182 580 160 562 q 139 544 133 544 q 131 544 129 546 q 127 548 127 551 q 127 559 140 573 q 152 587 180 610 q 231 651 283 673 q 335 694 385 694 q 443 694 477 664 q 511 634 511 583 q 511 533 479 488 q 446 442 384 406 z"},";":{"x_min":0,"x_max":299,"ha":299,"o":"m 130 259 q 110 259 95 273 q 81 288 81 309 q 81 328 96 342 q 110 356 130 356 q 150 356 164 342 q 178 328 178 309 q 178 287 165 273 q 151 259 130 259 z m 63 101 l 100 101 q 111 101 117 97 q 123 93 123 86 q 123 80 117 68 q 111 55 100 40 l -3 -106 q -21 -132 -31 -144 q -42 -155 -47 -155 q -50 -155 -52 -154 q -54 -152 -54 -150 q -54 -141 -30 -98 q -6 -55 6 -18 q 24 40 31 81 q 31 83 31 83 q 33 92 41 96 q 49 101 63 101 z"},"J":{"x_min":0,"x_max":343,"ha":343,"o":"m 172 191 q 129 21 103 -40 q 76 -101 39 -137 q 7 -168 -44 -189 q -95 -210 -137 -210 q -143 -210 -146 -208 q -150 -206 -150 -202 q -150 -194 -119 -187 q -88 -180 -68 -169 q 27 -119 105 200 l 107 206 l 183 512 q 189 537 198 580 q 207 623 217 672 q 147 681 127 687 q 107 693 107 701 q 107 706 110 708 q 113 711 120 711 q 124 711 138 709 q 203 701 262 701 q 302 701 344 706 q 386 711 388 711 q 395 711 398 708 q 402 706 402 701 q 402 694 384 688 q 365 683 298 672 q 281 617 269 575 q 257 533 248 497 z"},"V":{"x_min":0,"x_max":684,"ha":684,"o":"m 633 672 q 565 683 547 688 q 529 694 529 701 q 529 706 532 708 q 536 711 543 711 q 550 711 588 706 q 625 701 655 701 q 684 701 720 706 q 757 711 765 711 q 772 711 775 708 q 779 706 779 701 q 779 692 739 682 q 717 676 703 672 q 635 576 579 494 q 522 412 493 365 l 255 -9 q 253 -12 250 -17 q 244 -28 238 -28 q 234 -28 231 -21 q 229 -15 226 1 l 135 672 q 122 676 100 682 q 58 693 58 701 q 58 706 62 708 q 65 711 72 711 q 81 711 117 706 q 154 701 182 701 q 213 701 251 706 q 290 711 297 711 q 304 711 307 708 q 310 706 310 701 q 310 694 292 688 q 273 683 206 672 l 276 72 l 495 420 q 535 483 570 546 q 604 609 633 672 z"},"\"":{"x_min":0,"x_max":328,"ha":328,"o":"m 251 424 l 236 424 l 206 646 q 205 655 204 659 q 204 663 204 667 q 204 689 214 702 q 225 714 244 714 q 263 714 273 701 q 283 689 283 666 q 283 660 281 648 q 281 647 281 646 z m 92 424 l 77 424 l 47 646 q 47 647 47 648 q 45 660 45 666 q 45 689 55 701 q 65 714 84 714 q 103 714 114 702 q 124 689 124 667 q 124 662 123 649 q 122 647 122 646 z"},"7":{"x_min":0,"x_max":551,"ha":551,"o":"m 219 31 q 283 25 313 18 q 343 11 343 2 q 343 -3 339 -5 q 336 -7 327 -7 q 325 -7 315 -6 q 251 2 181 2 q 111 2 46 -6 q 37 -7 35 -7 q 26 -7 23 -5 q 20 -3 20 2 q 20 11 46 18 q 73 24 135 31 q 192 184 286 332 q 380 480 511 621 q 477 618 446 617 q 416 615 387 615 q 359 615 313 617 q 268 619 249 619 q 202 619 177 608 q 152 596 137 568 q 132 558 125 542 q 114 517 106 517 q 103 517 100 519 q 98 521 98 523 q 98 528 102 538 q 106 547 108 552 l 125 598 q 142 643 172 664 q 201 685 248 685 q 318 685 407 662 q 495 639 509 639 q 533 639 558 653 q 565 657 567 657 q 569 657 571 654 q 573 652 573 648 q 573 647 538 613 q 502 579 470 538 q 378 419 314 289 q 250 160 219 31 z"},"S":{"x_min":0,"x_max":627,"ha":627,"o":"m 50 68 l 36 40 q 29 24 22 16 q 15 7 9 7 q 4 7 2 10 q 0 13 0 17 q 0 19 23 78 q 46 137 61 200 q 66 223 73 257 q 80 300 90 300 q 95 300 97 294 q 100 289 100 280 q 100 270 95 236 q 89 202 80 155 q 127 85 184 49 q 241 13 302 13 q 372 13 422 61 q 473 108 473 172 q 473 215 447 244 q 421 273 344 309 q 325 317 293 332 q 222 364 208 374 q 159 409 142 438 q 125 466 125 508 q 125 598 189 660 q 254 722 349 722 q 394 722 441 706 q 488 689 545 653 l 562 682 q 569 695 576 703 q 583 710 589 710 q 592 710 595 707 q 597 705 597 701 q 597 700 574 650 q 551 600 536 545 q 531 527 525 499 q 517 460 508 460 q 503 460 501 464 q 498 468 498 475 q 498 486 503 514 q 508 542 516 578 q 468 632 417 659 q 367 686 314 686 q 253 686 213 650 q 173 613 173 558 q 173 513 202 481 q 232 449 314 411 q 327 405 355 394 q 427 364 462 339 q 490 320 504 288 q 518 256 518 211 q 518 167 499 125 q 480 83 445 49 q 410 16 366 -2 q 323 -19 273 -19 q 214 -19 157 3 q 100 26 50 68 z"},"}":{"x_min":0,"x_max":356,"ha":356,"o":"m 169 471 l 195 575 q 199 590 201 605 q 203 620 203 633 q 203 654 196 666 q 188 677 170 683 q 158 687 142 687 q 125 688 125 692 q 125 700 133 703 q 142 706 163 706 q 210 706 236 684 q 261 662 261 621 q 261 604 258 583 q 254 561 248 535 l 231 469 q 219 420 212 385 q 205 350 205 335 q 205 297 221 281 q 237 264 274 262 l 269 240 q 215 237 186 203 q 157 168 123 34 l 106 -33 q 83 -125 43 -164 q 3 -204 -63 -204 q -82 -204 -89 -202 q -97 -199 -97 -194 q -97 -185 -77 -184 q -56 -183 -45 -180 q -15 -172 2 -148 q 20 -125 33 -73 l 59 31 q 87 144 124 188 q 160 231 228 251 q 186 266 167 290 q 148 314 148 352 q 148 369 154 400 q 159 432 169 471 z"},"Z":{"x_min":0,"x_max":597,"ha":597,"o":"m 463 704 q 499 704 542 708 q 586 711 593 711 q 602 711 605 708 q 609 706 609 700 q 609 695 603 688 q 600 685 599 684 l 76 26 l 181 26 q 265 26 337 36 q 409 46 467 66 l 484 115 q 492 138 500 151 q 507 163 512 163 q 515 163 518 160 q 520 157 520 153 q 520 151 515 137 q 497 82 484 25 q 480 6 476 -21 q 470 -54 462 -54 q 457 -54 455 -50 q 453 -45 453 -30 l 453 -19 q 415 -9 364 -5 q 313 0 243 0 l 120 0 q 84 0 41 -3 q -2 -7 -9 -7 q -18 -7 -21 -4 q -25 -2 -25 4 q -25 9 -17 19 q -16 21 -15 21 l 509 678 l 431 678 q 355 678 283 669 q 211 660 145 642 l 127 590 q 119 567 112 554 q 104 542 99 542 q 96 542 94 545 q 91 548 91 552 q 91 554 96 568 q 115 624 127 680 q 131 699 135 726 q 141 759 149 759 q 153 759 155 756 q 157 753 157 744 q 157 741 156 732 q 156 722 156 715 q 184 709 221 707 q 258 704 326 704 z"},"x":{"x_min":0,"x_max":416,"ha":416,"o":"m 175 219 l 197 256 q 231 312 261 337 q 291 363 320 363 q 343 363 355 353 q 366 343 366 323 q 366 306 354 294 q 341 283 321 283 q 302 283 285 294 q 269 304 268 304 q 259 304 242 287 q 225 270 209 242 l 183 199 l 218 119 q 240 67 250 54 q 259 41 269 41 q 281 41 297 61 q 313 80 319 80 q 322 80 323 78 q 325 76 325 73 q 325 69 319 59 q 313 49 300 32 q 285 11 269 -2 q 252 -14 240 -14 q 221 -14 207 3 q 192 20 169 78 l 146 136 l 120 93 q 87 39 57 12 q 27 -14 -2 -14 q -25 -14 -37 -4 q -48 6 -48 27 q -48 45 -35 57 q -22 70 -3 70 q 18 70 42 51 q 48 46 50 46 q 60 46 76 63 q 92 80 109 108 l 137 155 l 106 230 q 87 275 76 292 q 65 308 55 308 q 43 308 27 289 q 11 269 6 269 q 3 269 1 271 q -1 273 -1 276 q -1 279 5 290 q 12 301 22 315 q 39 338 55 351 q 71 363 84 363 q 104 363 119 344 q 135 325 155 271 z"},")":{"x_min":0,"x_max":301,"ha":301,"o":"m -140 -165 q -140 -162 -103 -125 q -66 -89 -36 -49 q 65 86 117 235 q 169 384 169 541 q 169 618 146 696 q 142 710 142 713 q 142 718 144 720 q 146 722 149 722 q 157 722 176 677 l 179 671 q 199 624 210 562 q 221 500 221 439 q 221 309 176 191 q 131 74 44 -24 q -11 -86 -64 -129 q -118 -172 -133 -172 q -136 -172 -138 -170 q -140 -168 -140 -165 z"},"&":{"x_min":0,"x_max":806,"ha":806,"o":"m 449 334 q 459 338 470 340 q 481 342 493 342 q 554 342 592 305 q 630 268 630 209 q 630 110 543 45 q 456 -19 318 -19 q 185 -19 107 47 q 30 114 30 228 q 30 330 99 398 q 167 466 272 468 q 250 494 240 519 q 230 544 230 573 q 230 638 273 680 q 316 722 384 722 q 443 722 486 685 q 529 647 529 603 q 529 596 527 594 q 526 591 521 591 q 513 591 507 604 q 506 605 506 606 q 490 637 466 653 q 441 669 409 669 q 352 669 313 629 q 275 589 275 530 q 275 512 280 496 q 285 480 294 467 q 336 459 368 432 q 399 405 399 385 q 399 380 396 376 q 394 373 390 373 q 387 373 375 380 q 333 406 289 406 q 205 406 150 346 q 94 286 94 195 q 94 110 160 57 q 227 3 334 3 q 448 3 522 62 q 596 121 596 208 q 596 262 570 292 q 543 321 495 321 q 444 321 409 291 q 374 260 374 217 q 374 199 381 187 q 388 175 398 175 q 404 175 415 194 q 426 213 443 213 q 458 213 469 202 q 479 190 479 174 q 479 153 466 141 q 453 128 431 128 q 398 128 375 153 q 352 178 352 216 q 352 273 399 321 q 447 368 548 412 q 592 431 664 452 q 736 473 756 486 q 789 507 803 530 q 817 554 817 586 q 817 621 794 646 q 772 671 741 671 q 730 671 723 666 q 716 660 716 653 q 716 649 716 641 q 717 634 717 631 q 717 612 707 601 q 697 590 681 590 q 663 590 652 602 q 640 613 640 632 q 640 660 665 678 q 690 696 729 696 q 781 696 814 658 q 846 621 846 560 q 846 486 794 441 q 743 396 645 384 q 631 382 604 379 q 491 368 449 334 z"},"_":{"x_min":0,"x_max":500,"ha":500,"o":"m 0 -187 l 500 -187 l 500 -236 l 0 -236 z"},"v":{"x_min":0,"x_max":398,"ha":398,"o":"m 32 120 l 66 243 q 74 271 77 287 q 81 304 81 311 q 81 316 78 320 q 76 324 72 324 q 60 324 38 293 q 16 262 9 262 q 6 262 5 264 q 3 267 3 269 q 3 274 11 288 q 20 302 32 316 q 52 340 73 352 q 93 364 114 364 q 129 364 138 355 q 146 347 146 330 q 146 312 131 263 q 128 252 127 247 l 95 133 q 90 114 87 100 q 85 85 85 74 q 85 52 97 40 q 109 28 132 28 q 158 28 184 42 q 210 56 235 83 q 266 117 283 161 q 301 206 301 248 q 301 262 297 266 q 293 271 278 275 q 258 280 248 292 q 238 305 238 325 q 238 341 249 353 q 259 364 275 364 q 297 364 310 339 q 323 313 323 270 q 323 156 256 71 q 188 -14 102 -14 q 62 -14 41 3 q 21 21 21 56 q 21 69 24 84 q 26 100 32 120 z"},"O":{"x_min":0,"x_max":766,"ha":766,"o":"m 304 12 q 371 12 433 43 q 495 74 544 131 q 595 190 624 275 q 653 360 653 453 q 653 563 598 625 q 543 688 447 688 q 385 688 327 659 q 269 630 222 575 q 172 516 141 423 q 111 330 111 232 q 111 128 162 70 q 213 12 304 12 z m 276 -19 q 160 -19 95 44 q 30 107 30 220 q 30 294 59 373 q 89 453 145 530 q 211 622 300 672 q 388 722 480 722 q 597 722 665 652 q 733 583 733 462 q 733 395 709 325 q 685 255 638 189 q 569 92 473 36 q 376 -19 276 -19 z"},"(":{"x_min":0,"x_max":301,"ha":301,"o":"m 406 715 q 406 711 369 675 q 332 639 302 599 q 200 463 148 314 q 96 166 96 9 q 96 -70 120 -147 q 124 -159 124 -161 q 124 -166 122 -168 q 120 -171 116 -171 q 107 -171 89 -126 l 86 -120 q 66 -74 55 -12 q 44 49 44 111 q 44 240 89 358 q 134 476 221 574 q 276 636 330 679 q 383 723 398 723 q 401 723 403 720 q 406 718 406 715 z"},"C":{"x_min":0,"x_max":644,"ha":644,"o":"m 592 581 q 560 631 510 661 q 460 690 407 690 q 359 690 313 668 q 268 646 230 606 q 178 549 146 462 q 114 375 114 286 q 114 168 174 96 q 235 23 331 23 q 374 23 412 40 q 451 57 491 94 q 502 104 518 120 q 533 137 539 137 q 542 137 543 135 q 545 133 545 129 q 545 124 539 113 q 533 103 522 91 q 474 37 416 9 q 358 -19 294 -19 q 179 -19 108 56 q 37 131 37 252 q 37 349 69 435 q 100 520 161 587 q 219 651 293 687 q 368 722 443 722 q 481 722 526 708 q 571 694 623 666 l 642 707 q 649 723 653 729 q 657 734 661 734 q 666 734 668 731 q 670 729 670 724 q 670 717 651 668 q 633 620 622 576 q 609 522 604 463 q 598 405 590 405 q 584 405 582 411 q 579 418 579 433 q 579 457 582 492 q 585 526 592 581 z"},"W":{"x_min":0,"x_max":900,"ha":900,"o":"m 276 72 l 402 292 l 352 672 q 336 674 319 675 q 301 676 281 676 q 261 676 242 675 q 224 674 206 672 z m 255 -9 q 254 -11 252 -13 q 244 -28 238 -28 q 234 -28 231 -21 q 229 -15 226 1 l 135 672 q 122 676 100 682 q 58 693 58 701 q 58 706 62 708 q 65 711 72 711 q 75 711 117 706 q 158 701 196 701 l 336 701 q 405 701 473 709 q 485 711 488 711 q 495 711 499 708 q 502 706 502 701 q 502 692 461 682 q 438 676 423 672 l 459 362 l 495 420 q 540 492 574 554 q 608 616 633 672 q 622 675 602 680 q 553 691 553 701 q 553 706 557 708 q 560 711 567 711 q 570 711 612 706 q 654 701 693 701 l 849 701 q 894 701 938 706 q 982 711 982 711 q 989 711 992 708 q 995 706 995 701 q 995 692 955 682 q 934 676 920 672 q 842 562 787 481 q 731 400 709 365 l 472 -9 q 471 -11 468 -15 q 460 -28 454 -28 q 450 -28 448 -22 q 446 -17 443 1 l 408 248 z m 463 319 l 493 72 l 711 420 q 753 486 788 549 q 822 612 850 672 q 834 674 817 675 q 799 676 778 676 q 757 676 738 675 q 720 674 703 672 q 640 583 585 504 q 531 424 493 365 z"},"A":{"x_min":0,"x_max":687,"ha":687,"o":"m 161 223 q 125 164 101 114 q 77 64 67 31 q 134 23 159 17 q 183 11 183 2 q 183 -3 180 -5 q 177 -7 169 -7 q 166 -7 151 -5 q 87 2 28 2 q -12 2 -54 -2 q -97 -7 -99 -7 q -106 -7 -109 -5 q -112 -3 -112 2 q -112 15 -11 30 l -7 31 q 28 75 70 136 q 112 197 184 309 l 368 596 q 361 630 353 661 q 345 693 335 722 l 421 741 q 424 697 430 649 q 437 601 446 545 l 487 307 q 504 209 519 144 q 533 78 548 31 q 558 29 575 25 q 642 12 642 2 q 642 -3 639 -5 q 636 -7 628 -7 q 625 -7 610 -5 q 546 2 487 2 q 447 2 405 -2 q 362 -7 360 -7 q 353 -7 350 -5 q 347 -3 347 2 q 347 11 371 17 q 395 23 459 31 q 453 85 447 132 q 440 179 434 223 z m 174 246 l 429 246 l 374 565 q 324 491 274 411 q 224 332 174 246 z"},"f":{"x_min":0,"x_max":262,"ha":262,"o":"m 83 324 l 64 324 q 45 324 30 323 q 15 322 1 319 l 12 360 q 29 356 49 353 q 68 351 88 350 l 123 496 q 163 662 220 757 q 277 852 336 852 q 354 852 365 842 q 376 832 376 816 q 376 796 363 784 q 351 772 330 772 q 315 772 301 784 q 286 796 282 796 q 270 796 245 727 q 221 659 197 552 l 152 350 q 182 351 218 352 q 255 353 262 353 l 250 312 q 226 316 199 319 q 173 322 146 324 l 118 196 q 72 -13 19 -122 q -35 -231 -91 -231 q -109 -231 -118 -222 q -128 -213 -128 -196 q -128 -175 -113 -161 q -99 -147 -76 -147 q -66 -147 -53 -151 q -39 -155 -35 -155 q -19 -155 18 15 l 20 26 z"},"Q":{"x_min":0,"x_max":766,"ha":766,"o":"m 261 -19 q 151 -14 91 49 q 31 112 31 221 q 31 295 60 375 q 89 454 145 530 q 211 622 300 672 q 388 722 480 722 q 598 722 666 652 q 734 582 734 462 q 734 375 695 286 q 655 196 585 124 q 523 61 430 17 q 337 -27 205 -55 l 391 -118 q 400 -121 415 -126 q 495 -153 520 -153 q 550 -153 579 -135 q 608 -118 609 -118 q 612 -118 615 -121 q 618 -123 618 -126 q 618 -131 615 -136 q 611 -141 601 -149 q 569 -175 537 -189 q 505 -202 475 -202 q 435 -202 305 -155 q 249 -134 217 -123 q 162 -104 115 -93 q 68 -82 41 -82 q 29 -82 14 -84 q 0 -86 -3 -86 q -9 -86 -13 -84 q -17 -82 -17 -78 q -17 -67 18 -57 q 22 -56 25 -55 q 51 -47 75 -43 q 99 -39 116 -39 q 124 -39 135 -41 q 145 -42 160 -45 q 183 -42 208 -35 q 234 -28 261 -19 z m 304 12 q 371 12 433 43 q 495 74 544 131 q 595 190 624 275 q 653 360 653 453 q 653 563 598 625 q 543 688 447 688 q 385 688 327 659 q 269 630 222 575 q 172 516 141 423 q 111 330 111 232 q 111 128 162 70 q 213 12 304 12 z"},"w":{"x_min":0,"x_max":595,"ha":595,"o":"m 246 148 q 199 67 155 26 q 110 -14 69 -14 q 44 -14 31 0 q 17 15 17 41 q 17 55 21 76 q 25 97 32 120 l 70 242 q 77 262 80 281 q 84 301 84 311 q 84 316 82 320 q 80 324 76 324 q 64 324 42 293 q 20 262 13 262 q 10 262 9 264 q 7 267 7 269 q 7 274 15 287 q 23 301 36 315 q 57 339 76 351 q 96 363 117 363 q 133 363 141 354 q 149 346 149 330 q 149 318 145 300 q 141 281 131 247 l 91 110 q 90 108 89 104 q 83 82 83 72 q 83 57 90 49 q 98 41 112 41 q 157 41 211 125 q 265 210 300 343 l 365 355 l 307 147 q 307 146 306 142 q 295 101 295 81 q 295 58 307 45 q 319 32 341 32 q 364 32 386 45 q 408 57 431 83 q 462 117 479 161 q 497 205 497 248 q 497 262 493 266 q 489 271 474 275 q 455 279 445 292 q 434 305 434 325 q 434 341 445 353 q 456 364 472 364 q 494 364 507 339 q 519 314 519 270 q 519 222 506 176 q 492 130 467 92 q 435 43 391 15 q 347 -14 306 -14 q 273 -14 253 6 q 233 27 233 61 q 233 73 236 93 q 239 112 246 148 z"},"-":{"x_min":0,"x_max":264,"ha":264,"o":"m -22 155 l -7 215 l 194 215 l 178 155 z"},"E":{"x_min":0,"x_max":660,"ha":660,"o":"m 107 2 q 68 2 26 -3 q -16 -8 -19 -8 q -26 -8 -30 -5 q -33 -3 -33 2 q -33 15 66 30 l 71 31 q 85 75 97 118 q 109 162 120 205 l 196 511 q 200 526 219 616 l 230 671 q 161 680 140 686 q 120 692 120 700 q 120 705 123 708 q 126 710 133 710 q 136 710 151 708 q 216 700 275 700 l 354 700 q 393 700 458 705 q 523 710 603 720 l 618 750 q 623 760 626 763 q 629 766 632 766 q 636 766 638 764 q 640 762 640 756 q 640 750 627 711 q 613 672 606 638 q 601 615 597 583 q 593 550 584 550 q 579 550 576 555 q 573 561 573 573 q 573 581 574 592 q 574 602 574 604 l 578 650 q 542 663 500 669 q 458 675 409 675 q 387 675 329 672 q 317 671 311 671 q 298 630 286 586 q 273 542 262 496 l 229 368 l 300 368 q 366 368 422 375 q 479 381 520 393 l 546 457 q 549 464 552 469 q 556 473 560 473 q 565 473 567 471 q 569 469 569 463 q 569 460 553 412 q 538 364 528 315 q 523 292 519 261 q 514 225 505 225 q 500 225 498 230 q 495 236 495 248 q 495 261 495 268 q 496 274 496 279 l 499 325 q 459 335 413 340 q 366 345 302 345 l 224 345 l 186 191 q 183 177 176 148 q 170 119 152 31 q 191 28 217 27 q 242 26 260 26 q 323 26 375 35 q 428 44 474 62 l 494 112 q 505 141 510 148 q 515 156 520 156 q 525 156 526 154 q 528 152 528 146 q 528 140 515 101 q 501 62 494 28 q 489 5 485 -27 q 480 -61 472 -61 q 467 -61 464 -55 q 461 -48 461 -37 q 461 -35 461 -30 q 462 -25 462 -23 q 416 -11 352 -4 q 289 2 213 2 z"},"s":{"x_min":0,"x_max":396,"ha":396,"o":"m 19 83 q 52 56 89 42 q 126 28 165 28 q 199 28 219 43 q 239 58 239 83 q 239 115 163 143 q 153 146 148 148 q 143 150 132 154 q 37 188 37 232 q 37 250 47 271 q 57 291 76 310 q 104 339 134 352 q 164 364 205 364 q 231 364 255 358 q 278 352 299 339 l 309 356 q 312 361 315 363 q 317 365 320 365 q 323 365 324 363 q 326 361 326 358 q 326 355 315 326 q 305 298 298 271 q 294 257 291 237 q 288 215 280 215 q 276 215 275 219 q 274 222 274 234 l 275 274 q 262 293 233 305 q 204 316 166 316 q 125 316 101 303 q 77 291 77 270 q 77 244 154 217 q 168 212 176 209 q 243 184 261 166 q 280 148 280 118 q 280 65 229 25 q 177 -14 105 -14 q 75 -14 48 -7 q 21 0 -4 14 l -19 -11 q -21 -16 -24 -17 q -26 -19 -30 -19 q -33 -19 -34 -17 q -36 -15 -36 -12 q -36 -7 -26 21 q -16 48 -9 71 q -3 92 3 122 q 10 155 18 155 q 22 155 23 153 q 25 151 25 145 q 25 142 24 136 q 24 131 24 130 z"},">":{"x_min":0,"x_max":833,"ha":833,"o":"m 129 554 l 704 318 l 704 278 l 129 43 l 129 96 l 628 298 l 129 501 z"},"l":{"x_min":0,"x_max":185,"ha":185,"o":"m 31 0 l -30 0 l 155 737 q 157 748 158 755 q 159 763 159 770 q 159 780 156 787 q 152 793 146 793 q 133 793 114 761 q 94 730 89 730 q 85 730 84 732 q 82 734 82 739 q 82 745 91 762 q 100 779 114 799 q 135 828 152 839 q 168 851 186 851 q 207 851 218 839 q 228 827 228 804 q 228 793 225 776 q 222 759 216 734 z"},"8":{"x_min":0,"x_max":551,"ha":551,"o":"m 316 381 q 384 409 420 455 q 456 500 456 558 q 456 599 423 624 q 390 649 336 649 q 260 649 209 610 q 158 570 158 513 q 158 464 197 432 q 235 400 316 381 z m 224 334 q 144 316 97 268 q 50 220 50 157 q 50 101 95 67 q 141 33 217 33 q 309 33 368 78 q 428 122 428 189 q 428 240 386 271 q 344 302 224 334 z m 193 347 q 156 361 136 393 q 115 425 115 468 q 115 505 132 543 q 149 581 179 613 q 217 652 266 674 q 316 695 370 695 q 438 695 477 664 q 516 633 516 580 q 516 517 471 461 q 426 404 349 371 q 419 349 451 316 q 483 283 483 234 q 483 200 464 161 q 446 122 412 86 q 363 34 304 8 q 246 -19 180 -19 q 92 -19 40 23 q -12 64 -12 134 q -12 203 42 259 q 96 315 193 347 z"},"\\":{"x_min":0,"x_max":292,"ha":292,"o":"m 209 -93 l 51 722 l 97 722 l 256 -93 z"},"e":{"x_min":0,"x_max":361,"ha":361,"o":"m 36 133 q 126 143 177 181 q 228 219 228 275 q 228 296 212 306 q 197 317 166 317 q 102 317 70 271 q 38 226 36 133 z m 39 114 q 42 77 67 56 q 92 36 136 36 q 161 36 184 43 q 207 51 225 65 q 243 79 261 96 q 278 113 281 113 q 284 113 287 110 q 289 107 289 103 q 289 100 278 85 q 268 71 252 56 q 216 20 177 2 q 137 -15 92 -15 q 36 -15 3 18 q -30 51 -30 107 q -30 148 -10 194 q 10 239 47 279 q 83 318 125 341 q 168 364 205 364 q 248 364 272 345 q 296 327 296 293 q 296 233 223 181 q 150 129 39 114 z"},"b":{"x_min":0,"x_max":433,"ha":433,"o":"m 45 50 q 73 40 97 34 q 121 29 142 29 q 174 29 199 39 q 224 49 241 68 q 268 98 287 148 q 306 198 306 239 q 306 277 290 292 q 273 308 233 308 q 163 308 121 251 q 78 194 45 50 z m -25 4 l 151 738 q 153 745 154 754 q 155 762 155 771 q 155 781 151 788 q 148 794 142 794 q 128 794 109 762 q 90 730 85 730 q 82 730 80 732 q 78 735 78 740 q 78 746 87 762 q 96 779 110 799 q 132 830 148 841 q 164 852 181 852 q 202 852 212 840 q 223 828 223 805 q 223 792 220 774 q 217 756 212 735 l 91 240 q 128 302 172 333 q 216 364 267 364 q 319 364 347 339 q 374 314 374 267 q 374 228 354 180 q 333 133 298 93 q 251 40 197 13 q 143 -14 81 -14 q 57 -14 31 -10 q 4 -5 -25 4 z"},"%":{"x_min":0,"x_max":838,"ha":838,"o":"m 195 351 q 131 351 94 389 q 56 427 56 491 q 56 571 110 627 q 164 683 239 683 q 301 683 341 643 q 381 603 381 540 q 381 464 326 407 q 271 351 195 351 z m 115 479 q 115 428 137 401 q 160 374 202 374 q 250 374 287 429 q 323 484 323 560 q 323 608 302 634 q 280 660 240 660 q 190 660 153 606 q 115 552 115 479 z m 515 119 q 515 68 537 41 q 559 14 601 14 q 650 14 687 69 q 723 125 723 200 q 723 248 701 274 q 679 300 639 300 q 590 300 552 246 q 515 192 515 119 z m 595 -9 q 531 -9 494 29 q 456 67 456 131 q 456 210 510 267 q 563 323 639 323 q 702 323 742 282 q 782 242 782 179 q 782 103 727 47 q 671 -9 595 -9 z m 176 -39 l 619 713 l 659 713 l 216 -39 z"},"m":{"x_min":0,"x_max":725,"ha":725,"o":"m 59 0 l -4 0 q 4 19 11 40 q 19 62 27 88 l 55 176 q 66 213 73 245 q 80 277 80 292 q 80 301 77 307 q 73 312 67 312 q 54 312 37 284 q 19 256 14 256 q 11 256 9 259 q 6 261 6 264 q 6 271 32 308 l 33 309 q 52 334 73 349 q 95 364 114 364 q 132 364 140 354 q 147 345 147 321 q 147 303 136 258 q 125 213 107 154 q 169 264 221 314 q 273 364 323 364 q 352 364 365 352 q 377 339 377 310 q 377 286 367 244 q 357 201 339 154 q 403 266 454 315 q 505 364 556 364 q 587 364 602 350 q 617 335 617 306 q 617 282 594 217 q 590 206 588 200 l 541 59 q 538 49 537 45 q 536 42 536 39 q 536 32 539 29 q 541 25 545 25 q 563 25 587 53 q 610 81 614 81 q 617 81 619 78 q 621 76 621 72 q 621 66 613 55 q 605 43 592 31 q 568 9 546 -3 q 523 -14 503 -14 q 486 -14 479 -6 q 471 2 471 22 q 471 41 489 93 q 496 111 499 121 l 539 238 q 545 256 547 268 q 550 280 550 288 q 550 302 542 310 q 535 317 519 317 q 475 317 411 229 q 347 142 291 0 l 227 0 q 236 22 244 44 q 252 66 259 88 l 287 176 q 298 213 305 245 q 312 278 312 293 q 312 305 306 311 q 300 317 287 317 q 244 317 179 229 q 115 141 59 0 z"},"#":{"x_min":0,"x_max":769,"ha":769,"o":"m 342 426 l 291 282 l 435 282 l 486 426 z m 387 710 l 443 710 l 359 474 l 503 474 l 587 710 l 642 710 l 558 474 l 712 474 l 695 426 l 541 426 l 491 282 l 657 282 l 639 234 l 473 234 l 390 0 l 335 0 l 418 234 l 275 234 l 191 0 l 136 0 l 219 234 l 57 234 l 75 282 l 236 282 l 287 426 l 112 426 l 129 474 l 304 474 z"},",":{"x_min":0,"x_max":275,"ha":275,"o":"m 66 101 l 103 101 q 114 101 120 97 q 126 93 126 86 q 126 81 120 68 q 113 56 102 40 l -1 -106 q -19 -132 -29 -144 q -40 -155 -45 -155 q -48 -155 -49 -154 q -51 -152 -51 -150 q -51 -141 -27 -98 q -3 -55 9 -18 q 27 38 33 80 q 33 83 33 83 q 35 92 43 96 q 52 101 66 101 z"},"n":{"x_min":0,"x_max":502,"ha":502,"o":"m 59 0 l -4 0 q 4 19 11 40 q 19 62 27 88 l 55 176 q 66 213 73 245 q 80 277 80 292 q 80 301 77 307 q 73 312 67 312 q 54 312 37 284 q 19 256 14 256 q 11 256 9 259 q 6 261 6 264 q 6 271 32 308 l 33 309 q 52 334 73 349 q 95 364 114 364 q 132 364 140 354 q 147 345 147 321 q 147 303 136 258 q 125 213 107 154 q 171 267 223 315 q 275 364 329 364 q 363 364 379 350 q 395 336 395 306 q 395 282 372 217 q 368 206 366 200 l 318 59 q 316 53 315 48 q 314 43 314 39 q 314 32 316 29 q 318 25 323 25 q 341 25 365 53 q 388 81 392 81 q 395 81 397 78 q 399 76 399 72 q 399 66 391 55 q 383 43 370 31 q 346 9 324 -3 q 301 -14 281 -14 q 264 -14 256 -6 q 249 2 249 22 q 249 42 269 99 q 273 113 276 121 l 316 238 q 323 258 325 270 q 328 281 328 288 q 328 302 320 310 q 312 317 297 317 q 245 317 182 234 q 120 152 59 0 z"},"h":{"x_min":0,"x_max":481,"ha":481,"o":"m 27 0 l -30 0 l 155 737 q 157 748 158 755 q 159 763 159 770 q 159 780 156 787 q 152 793 146 793 q 133 793 114 761 q 94 730 89 730 q 85 730 84 732 q 82 734 82 739 q 82 745 91 762 q 100 779 114 799 q 135 828 152 839 q 168 851 186 851 q 207 851 218 839 q 228 827 228 804 q 228 793 225 776 q 222 759 216 734 l 59 117 q 125 241 187 302 q 250 364 308 364 q 342 364 358 350 q 374 336 374 306 q 374 282 351 217 q 347 206 345 200 l 297 59 q 295 53 294 48 q 293 43 293 39 q 293 32 295 29 q 297 25 302 25 q 320 25 344 53 q 367 81 371 81 q 374 81 376 78 q 378 76 378 72 q 378 66 370 55 q 362 43 349 31 q 325 9 303 -3 q 280 -14 260 -14 q 243 -14 236 -6 q 229 2 229 22 q 229 42 249 99 q 253 113 256 121 l 296 238 q 302 255 304 267 q 307 279 307 288 q 307 303 299 310 q 291 317 273 317 q 222 317 157 234 q 92 150 27 0 z"},"z":{"x_min":0,"x_max":400,"ha":400,"o":"m 268 270 l 260 270 q 220 270 159 297 q 97 323 74 323 q 42 323 24 302 q 6 281 6 244 q 6 235 7 226 q 8 216 8 215 q 8 209 7 208 q 5 206 3 206 q -5 206 -9 217 q -12 227 -12 250 q -12 300 21 332 q 54 363 106 363 q 156 363 222 335 q 287 308 302 308 q 312 308 324 313 q 337 318 340 318 q 343 318 346 316 q 348 314 348 311 q 348 307 340 300 q 338 299 337 298 l 58 64 q 59 64 61 64 q 76 66 83 66 q 113 66 160 53 q 207 40 223 40 q 250 40 270 66 q 290 93 294 93 q 297 93 299 91 q 301 89 301 87 q 301 82 294 68 q 287 54 276 39 q 253 8 234 -3 q 215 -14 187 -14 q 160 -14 107 -1 q 54 11 29 11 q 9 11 -13 3 q -35 -6 -39 -6 q -42 -6 -43 -3 q -45 -1 -45 3 q -45 6 -43 9 q -41 12 -36 16 z"},"B":{"x_min":0,"x_max":685,"ha":685,"o":"m 72 31 q 85 73 97 117 q 109 160 121 206 l 197 512 q 203 537 212 580 q 221 623 231 672 q 162 681 141 687 q 121 693 121 701 q 121 706 124 708 q 127 711 134 711 q 137 711 179 706 q 221 701 261 701 q 296 701 354 706 q 413 711 435 711 q 528 711 581 668 q 633 626 633 551 q 633 475 578 422 q 523 368 426 349 q 503 337 542 299 q 581 260 581 197 q 581 104 501 48 q 421 -8 285 -8 q 258 -8 199 -3 q 140 2 108 2 q 68 2 26 -2 q -17 -7 -19 -7 q -26 -7 -29 -5 q -32 -3 -32 2 q -32 15 67 30 z m 153 31 q 193 24 227 21 q 260 18 287 18 q 387 18 442 63 q 497 108 497 191 q 497 264 447 298 q 397 332 291 332 l 221 332 l 187 191 q 181 165 172 123 q 163 81 153 31 z m 227 358 l 230 358 q 271 356 290 356 q 428 356 492 399 q 556 443 556 536 q 556 607 518 647 q 479 686 410 686 q 394 686 369 683 q 345 679 312 672 q 298 629 285 585 q 273 542 262 497 z"},"K":{"x_min":0,"x_max":684,"ha":684,"o":"m 187 191 q 184 177 177 148 q 171 119 153 31 q 223 21 243 16 q 263 10 263 2 q 263 -3 260 -5 q 256 -7 249 -7 q 246 -7 231 -5 q 167 2 108 2 q 68 2 26 -2 q -17 -7 -19 -7 q -26 -7 -29 -5 q -32 -3 -32 2 q -32 15 67 30 l 72 31 q 85 73 97 117 q 109 160 121 206 l 197 512 q 203 537 212 580 q 221 623 231 672 q 162 681 141 687 q 121 693 121 701 q 121 706 124 708 q 127 711 134 711 q 137 711 152 709 q 217 701 276 701 q 316 701 358 706 q 400 711 402 711 q 409 711 413 708 q 416 706 416 701 q 416 694 398 688 q 379 683 312 672 q 299 630 286 586 q 274 542 262 497 l 226 355 q 387 487 459 552 q 531 617 581 672 q 540 684 529 689 q 519 694 519 701 q 519 707 522 709 q 526 711 535 711 q 538 711 570 707 q 602 703 631 703 q 660 703 694 707 q 727 711 731 711 q 738 711 742 708 q 745 706 745 701 q 745 693 718 687 q 691 681 672 675 q 608 631 555 592 q 502 554 470 528 l 252 351 q 254 351 257 352 q 278 353 287 353 q 341 353 374 331 q 407 309 445 242 l 519 108 q 544 62 559 46 q 573 30 588 30 q 596 30 606 35 q 616 41 619 41 q 622 41 624 39 q 627 36 627 34 q 627 23 596 2 q 566 -19 543 -19 q 522 -19 503 0 q 485 19 457 71 l 374 223 q 341 284 308 307 q 275 331 226 331 l 220 331 z"},"R":{"x_min":0,"x_max":662,"ha":662,"o":"m 312 672 q 295 617 283 575 q 271 533 262 497 l 187 191 q 182 168 172 125 q 163 82 153 31 q 223 21 243 16 q 263 10 263 2 q 263 -3 260 -5 q 256 -7 249 -7 q 246 -7 231 -5 q 167 2 108 2 q 68 2 26 -2 q -17 -7 -19 -7 q -26 -7 -29 -5 q -32 -3 -32 2 q -32 15 67 30 l 72 31 q 85 73 97 117 q 109 160 121 206 l 197 512 q 203 537 212 580 q 221 623 231 672 q 162 681 141 687 q 121 693 121 701 q 121 706 124 708 q 127 711 134 711 q 136 711 180 706 q 223 701 264 701 q 294 701 351 706 q 408 710 436 710 q 528 710 577 672 q 626 634 626 562 q 626 475 543 411 q 460 347 337 344 q 423 154 477 79 q 530 3 575 3 q 581 3 588 3 q 596 4 598 4 q 605 4 609 1 q 613 -1 613 -6 q 613 -14 579 -29 q 544 -44 518 -44 q 482 -44 442 3 q 402 50 355 147 l 282 296 q 268 325 261 340 q 261 343 259 348 q 257 353 257 355 q 257 361 265 364 q 273 367 290 367 l 331 367 q 434 367 494 416 q 554 465 554 548 q 554 613 515 649 q 476 684 405 684 q 388 684 365 681 q 341 678 312 672 z"},"T":{"x_min":0,"x_max":606,"ha":606,"o":"m 426 676 q 413 634 401 590 q 389 545 377 497 l 301 191 q 298 177 290 141 q 283 104 268 31 q 337 21 358 16 q 378 10 378 2 q 378 -3 375 -5 q 372 -7 364 -7 q 360 -7 346 -5 q 282 2 223 2 q 183 2 141 -2 q 98 -7 96 -7 q 89 -7 86 -5 q 83 -3 83 2 q 83 15 182 30 l 187 31 q 200 73 212 117 q 225 160 236 206 l 312 512 q 318 538 327 581 q 336 624 346 676 l 281 676 q 233 676 190 667 q 147 659 112 642 l 94 590 q 86 567 79 554 q 71 542 66 542 q 63 542 61 545 q 58 548 58 552 q 58 554 62 567 q 82 626 95 687 q 98 701 101 722 q 107 759 116 759 q 121 759 122 756 q 124 753 124 744 q 124 741 124 732 q 123 722 123 715 q 154 707 206 703 q 258 699 327 699 l 448 699 q 515 699 567 702 q 620 705 656 711 q 658 715 660 722 q 675 759 684 759 q 687 759 689 756 q 691 754 691 750 q 691 749 678 709 q 666 669 657 628 q 652 607 648 578 q 642 543 634 543 l 633 543 q 629 543 627 546 q 625 550 625 556 q 625 575 627 597 q 629 619 633 646 q 596 661 559 668 q 521 676 484 676 z"},"P":{"x_min":0,"x_max":617,"ha":617,"o":"m 224 343 q 245 337 269 334 q 293 331 322 331 q 428 331 492 388 q 556 444 556 537 q 556 604 512 645 q 468 685 395 685 q 376 685 355 682 q 335 679 312 673 q 296 625 284 582 q 272 539 262 499 z m 72 31 q 85 73 97 117 q 109 160 121 206 l 197 512 q 203 537 212 580 q 221 623 231 672 q 162 681 141 687 q 121 693 121 701 q 121 706 124 708 q 127 711 134 711 q 138 711 179 706 q 221 701 259 701 q 292 701 348 706 q 404 711 427 711 q 524 711 578 666 q 633 621 633 541 q 633 438 544 371 q 455 304 315 304 q 293 304 269 306 q 245 309 217 313 l 187 191 q 182 171 173 128 q 164 84 153 31 q 218 24 245 18 q 272 11 272 2 q 272 -3 269 -5 q 266 -7 258 -7 q 255 -7 244 -6 q 176 2 108 2 q 69 2 26 -2 q -16 -7 -19 -7 q -26 -7 -29 -5 q -32 -3 -32 2 q -32 15 67 30 z"},"|":{"x_min":0,"x_max":500,"ha":500,"o":"m 224 764 l 277 764 l 277 -236 l 224 -236 z"},"t":{"x_min":0,"x_max":301,"ha":301,"o":"m 83 324 l 64 324 q 45 324 30 323 q 15 322 1 319 l 12 360 q 29 356 49 353 q 68 351 88 350 l 141 555 l 204 555 l 151 350 l 180 350 q 202 350 222 351 q 243 352 261 353 l 249 312 q 225 316 199 319 q 173 322 144 324 l 97 129 q 91 106 89 92 q 87 79 87 69 q 87 53 95 44 q 104 36 120 36 q 146 36 173 59 q 200 81 203 81 q 205 81 207 79 q 208 77 208 74 q 208 53 165 20 q 121 -13 75 -13 q 47 -13 31 0 q 16 12 16 35 q 16 45 19 60 q 21 74 27 97 z"},"M":{"x_min":0,"x_max":887,"ha":887,"o":"m 240 540 l 172 335 q 144 250 126 174 q 108 97 101 31 q 105 30 115 28 q 200 13 200 2 q 200 -3 197 -5 q 193 -7 186 -7 q 180 -7 142 -2 q 104 2 72 2 q 42 2 3 -2 q -35 -7 -41 -7 q -48 -7 -52 -5 q -55 -3 -55 2 q -55 11 -2 23 q 21 28 34 31 q 55 78 75 131 q 96 185 122 265 l 227 579 l 215 612 q 202 647 191 661 q 180 674 161 682 q 152 686 137 689 q 119 694 119 701 q 119 706 123 708 q 126 711 133 711 q 135 711 145 710 q 187 705 226 705 q 244 705 253 705 q 263 706 271 706 l 408 185 l 752 706 q 757 706 764 705 q 770 705 781 705 q 805 705 831 708 q 856 711 857 711 q 864 711 868 708 q 871 706 871 701 q 871 692 834 684 q 805 677 787 672 q 774 621 766 581 q 758 542 754 514 l 711 196 q 708 171 705 129 q 702 86 700 31 q 732 22 750 18 q 768 13 772 13 q 777 13 781 10 q 784 6 784 2 q 784 -3 781 -5 q 777 -7 770 -7 q 766 -7 726 -2 q 687 2 652 2 q 616 2 576 -2 q 536 -7 532 -7 q 524 -7 521 -5 q 518 -3 518 2 q 518 13 604 29 l 616 31 q 626 78 633 122 q 641 165 646 205 l 698 576 l 389 107 q 383 98 379 94 q 376 91 374 91 q 371 91 368 95 q 365 99 363 106 z"},"g":{"x_min":0,"x_max":428,"ha":428,"o":"m 285 300 q 257 309 233 313 q 209 318 188 318 q 112 318 71 266 q 30 213 30 118 q 30 78 47 57 q 65 35 97 35 q 165 35 215 106 q 266 177 285 300 z m 365 343 q 342 277 306 131 q 269 -15 233 -76 q 191 -145 132 -188 q 72 -232 20 -232 q -20 -232 -43 -217 q -66 -202 -66 -177 q -66 -146 -55 -109 q -44 -73 -37 -73 q -33 -73 -31 -76 q -28 -78 -28 -82 q -28 -85 -31 -100 q -34 -115 -34 -126 q -34 -149 -12 -163 q 10 -176 50 -176 q 89 -176 119 -162 q 149 -149 163 -125 q 181 -95 199 -37 q 218 20 238 104 q 190 45 145 15 q 100 -14 57 -14 q 18 -14 -5 13 q -29 40 -29 85 q -29 133 -10 181 q 9 229 44 269 q 85 317 136 341 q 187 364 249 364 q 277 364 306 359 q 335 354 365 343 z"},"j":{"x_min":0,"x_max":229,"ha":229,"o":"m 69 246 q 73 262 75 275 q 77 289 77 297 q 77 304 74 309 q 71 313 66 313 q 55 313 37 285 q 19 257 13 257 q 10 257 8 259 q 6 262 6 265 q 6 269 12 280 q 19 291 32 310 q 50 335 73 350 q 95 365 114 365 q 131 365 139 356 q 147 346 147 326 q 147 314 143 289 q 139 264 131 235 l 65 -18 q 40 -114 -3 -172 q -46 -231 -85 -231 q -89 -231 -92 -228 q -94 -226 -94 -222 q -94 -217 -82 -208 q -69 -200 -61 -192 q -40 -169 -23 -127 q -6 -84 12 -4 z m 98 545 q 98 564 113 579 q 127 593 147 593 q 167 593 180 579 q 194 565 194 546 q 194 525 181 511 q 167 498 147 498 q 127 498 113 512 q 98 525 98 545 z"},"i":{"x_min":0,"x_max":234,"ha":234,"o":"m 56 206 q 63 236 68 260 q 72 285 72 295 q 72 303 69 307 q 65 312 60 312 q 48 312 31 284 q 13 257 7 257 q 4 257 2 259 q 0 261 0 264 q 0 268 6 279 q 13 290 26 309 q 44 334 67 349 q 89 364 108 364 q 125 364 134 354 q 142 345 142 325 q 142 314 137 290 q 133 266 125 234 l 66 0 l 4 0 z m 106 545 q 106 564 120 579 q 134 593 154 593 q 174 593 188 579 q 202 565 202 546 q 202 525 188 512 q 174 498 154 498 q 134 498 120 512 q 106 525 106 545 z"},"y":{"x_min":0,"x_max":461,"ha":461,"o":"m 332 350 l 394 350 q 375 285 345 170 q 298 -15 262 -76 q 221 -145 161 -188 q 101 -232 49 -232 q 9 -232 -14 -217 q -38 -202 -38 -177 q -38 -167 -35 -150 q -31 -133 -24 -107 l -18 -86 q -16 -80 -13 -76 q -11 -73 -8 -73 q -4 -73 -2 -76 q 0 -78 0 -82 q 0 -86 -2 -101 q -5 -115 -5 -126 q -5 -149 17 -163 q 39 -176 79 -176 q 130 -176 159 -157 q 188 -138 209 -89 q 222 -57 238 -2 q 254 52 280 154 q 235 70 185 28 q 134 -14 79 -14 q 46 -14 31 0 q 15 14 15 44 q 15 67 37 132 q 41 144 43 150 l 91 291 q 91 292 92 295 q 96 308 96 311 q 96 317 94 321 q 91 325 86 325 q 68 325 45 297 q 22 269 19 269 q 15 269 13 271 q 11 273 11 277 q 11 284 19 295 q 26 307 39 319 q 61 340 84 352 q 106 364 124 364 q 141 364 150 355 q 158 346 158 327 q 158 298 138 242 q 135 234 133 229 l 93 112 q 86 90 83 80 q 81 70 81 62 q 81 46 90 40 q 99 33 121 33 q 181 33 235 114 q 289 195 332 350 z"},"@":{"x_min":0,"x_max":986,"ha":986,"o":"m 582 166 q 553 114 515 88 q 476 61 430 61 q 371 61 334 106 q 298 151 298 225 q 298 277 322 329 q 346 381 389 424 q 422 456 459 474 q 497 491 533 491 q 575 491 603 466 q 630 441 641 394 l 668 483 l 732 483 l 649 187 q 644 168 642 157 q 640 146 640 136 q 640 110 653 96 q 666 82 689 82 q 712 82 742 97 q 772 111 798 136 q 843 179 869 243 q 894 307 894 379 q 894 518 799 602 q 705 687 550 687 q 464 687 389 658 q 315 630 257 575 q 192 514 158 431 q 125 348 125 247 q 125 161 152 98 q 180 36 239 -15 q 295 -64 368 -89 q 440 -114 525 -114 q 606 -114 683 -88 q 759 -62 826 -12 l 841 -29 q 769 -82 689 -109 q 608 -136 522 -136 q 430 -136 356 -114 q 282 -91 222 -46 q 148 10 110 89 q 72 167 72 262 q 72 362 114 448 q 156 534 236 600 q 300 654 378 681 q 455 708 544 708 q 712 708 814 617 q 915 525 915 374 q 915 297 887 230 q 858 163 806 115 q 777 88 746 75 q 714 61 682 61 q 635 61 610 87 q 585 114 582 166 z m 534 473 q 507 473 485 458 q 462 443 439 408 q 403 354 382 293 q 361 232 361 185 q 361 138 382 111 q 403 83 438 83 q 471 83 501 105 q 531 126 559 170 q 587 214 604 267 q 620 320 620 365 q 620 412 595 442 q 571 473 534 473 z"},".":{"x_min":0,"x_max":275,"ha":275,"o":"m 66 -9 q 45 -9 31 5 q 17 20 17 40 q 17 59 32 73 q 46 87 66 87 q 86 87 100 73 q 114 59 114 40 q 114 19 100 5 q 87 -9 66 -9 z"},"p":{"x_min":0,"x_max":481,"ha":481,"o":"m 92 58 q 132 42 164 35 q 195 28 222 28 q 254 28 272 40 q 291 52 311 93 q 332 133 343 171 q 354 210 354 238 q 354 277 338 293 q 323 308 282 308 q 220 308 184 271 q 147 234 117 139 z m 24 28 q 14 32 1 37 q -11 42 -35 54 l -13 104 q 0 97 12 92 q 25 86 40 81 l 65 171 q 74 204 80 234 q 85 265 85 282 q 85 292 81 299 q 78 305 72 305 q 59 305 39 274 q 20 242 15 242 q 11 242 10 244 q 8 246 8 251 q 8 257 17 275 q 26 292 40 312 q 59 338 76 350 q 92 363 108 363 q 127 363 136 350 q 145 336 145 306 q 145 292 143 275 q 141 257 137 236 q 175 300 219 332 q 263 364 314 364 q 365 364 393 340 q 421 315 421 271 q 421 241 406 197 q 390 152 365 112 q 325 48 277 17 q 229 -15 173 -15 q 154 -15 131 -10 q 107 -5 78 6 l 19 -231 l -48 -231 z"},"X":{"x_min":0,"x_max":669,"ha":669,"o":"m 519 31 q 584 23 607 17 q 631 11 631 2 q 631 -3 628 -5 q 625 -7 617 -7 q 613 -7 599 -5 q 535 2 476 2 q 436 2 394 -2 q 352 -7 350 -7 q 342 -7 339 -5 q 336 -3 336 2 q 336 13 423 29 q 432 30 436 31 q 423 71 409 108 q 394 146 378 180 l 311 324 l 233 227 q 188 171 155 120 q 123 69 108 31 q 173 21 191 16 q 210 10 210 2 q 210 -3 207 -5 q 203 -7 195 -7 q 192 -7 180 -5 q 121 2 64 2 q 26 2 -12 -2 q -50 -7 -52 -7 q -60 -7 -63 -5 q -67 -3 -67 2 q -67 9 -50 15 q -34 21 28 31 q 62 63 96 101 q 131 139 183 203 l 301 347 l 149 672 q 138 675 117 680 q 68 691 68 703 q 68 708 71 709 q 74 711 82 711 q 85 711 97 709 q 151 701 204 701 q 239 701 275 706 q 312 711 313 711 q 320 711 324 709 q 327 707 327 701 q 327 693 309 687 q 292 681 231 672 q 242 637 255 604 q 268 570 284 536 l 347 402 l 459 541 q 493 583 514 614 q 536 645 550 672 l 549 672 q 458 688 458 703 q 458 707 461 709 q 465 711 473 711 q 476 711 488 709 q 542 701 595 701 q 630 701 666 706 q 703 711 704 711 q 711 711 715 709 q 718 707 718 701 q 718 693 700 687 q 683 681 623 672 q 573 627 529 581 q 484 535 446 488 l 356 379 z"},"*":{"x_min":0,"x_max":338,"ha":338,"o":"m 201 560 l 196 563 q 176 550 149 523 q 122 496 107 496 q 98 496 91 504 q 84 511 84 522 q 84 542 128 555 q 165 565 188 576 l 188 583 q 166 595 128 606 q 84 619 84 638 q 84 648 91 656 q 98 664 108 664 q 122 664 148 637 q 175 610 197 598 l 203 601 q 202 627 194 657 q 186 687 186 693 q 186 707 193 714 q 199 722 211 722 q 223 722 230 714 q 237 707 237 693 q 237 687 228 657 q 220 627 219 601 l 225 598 q 245 611 271 637 q 296 663 311 663 q 321 663 329 655 q 336 647 336 637 q 336 618 292 606 q 254 595 231 584 l 231 577 q 254 566 292 555 q 337 542 337 523 q 337 513 330 505 q 323 497 313 497 q 299 497 273 523 q 247 550 225 562 l 219 559 q 220 533 228 503 q 237 473 237 467 q 237 454 230 446 q 223 438 211 438 q 199 438 193 446 q 186 453 186 467 q 186 474 194 500 q 202 527 202 548 q 202 550 202 554 q 201 558 201 560 z"},"Y":{"x_min":0,"x_max":616,"ha":616,"o":"m 325 324 l 293 191 q 284 153 276 114 q 268 74 259 31 q 329 21 349 16 q 369 10 369 2 q 369 -3 366 -5 q 363 -7 355 -7 q 352 -7 337 -5 q 273 2 214 2 q 174 2 132 -2 q 90 -7 88 -7 q 81 -7 77 -5 q 74 -3 74 2 q 74 15 173 30 l 178 31 q 188 65 200 107 q 212 148 227 206 l 259 331 l 126 672 q 112 676 89 682 q 49 692 49 701 q 49 706 52 708 q 56 711 63 711 q 72 711 108 706 q 145 701 173 701 q 204 701 242 706 q 280 711 287 711 q 294 711 297 708 q 301 706 301 701 q 301 694 283 688 q 265 683 197 672 l 319 350 l 419 469 q 464 523 498 574 q 532 624 556 672 q 489 683 470 688 q 452 694 452 701 q 452 706 456 708 q 459 711 466 711 q 473 711 511 706 q 548 701 578 701 q 607 701 643 706 q 679 711 686 711 q 695 711 698 708 q 702 706 702 701 q 702 691 660 680 q 643 675 632 672 q 607 646 580 615 q 552 584 522 550 z"},"c":{"x_min":0,"x_max":359,"ha":359,"o":"m 268 283 q 248 302 225 310 q 203 319 174 319 q 114 319 76 263 q 37 208 37 123 q 37 76 60 53 q 82 31 129 31 q 158 31 180 41 q 202 50 225 74 q 229 79 236 87 q 248 102 253 102 q 256 102 258 100 q 260 98 260 94 q 260 86 252 73 q 244 60 229 44 q 203 16 170 1 q 137 -14 100 -14 q 37 -14 5 15 q -27 43 -27 101 q -27 143 -13 181 q 0 220 26 252 q 66 302 119 332 q 171 363 215 363 q 236 363 255 357 q 274 352 293 341 l 293 341 q 310 372 319 372 q 322 372 323 370 q 325 368 325 365 q 325 362 302 307 q 278 252 278 214 q 278 209 275 206 q 273 202 269 202 q 265 202 262 206 q 260 210 260 217 q 260 220 261 227 q 262 234 263 244 z"},"!":{"x_min":0,"x_max":340,"ha":340,"o":"m 222 669 q 229 699 244 711 q 259 722 289 722 q 300 722 306 719 q 311 716 311 711 q 311 705 306 689 q 304 685 303 682 l 125 186 q 122 179 120 177 q 119 175 116 175 q 111 175 109 178 q 107 181 107 185 q 107 186 107 188 q 108 190 108 191 z m 71 -10 q 51 -10 37 4 q 23 18 23 39 q 23 58 37 73 q 52 87 71 87 q 91 87 105 73 q 120 58 120 39 q 120 18 106 4 q 92 -10 71 -10 z"},"/":{"x_min":0,"x_max":292,"ha":292,"o":"m -83 -93 l 297 722 l 344 722 l -37 -93 z"},"[":{"x_min":0,"x_max":301,"ha":301,"o":"m 56 -128 l 126 -128 q 138 -128 145 -131 q 151 -135 151 -141 q 151 -147 147 -150 q 143 -153 128 -153 l -18 -153 l 196 704 l 344 704 q 356 704 363 701 q 369 697 369 691 q 369 684 365 682 q 360 679 346 679 l 257 679 z"},"6":{"x_min":0,"x_max":551,"ha":551,"o":"m 153 473 q 218 529 277 557 q 335 585 387 585 q 446 585 484 543 q 521 500 521 433 q 521 350 486 259 q 450 168 391 99 q 342 42 285 12 q 228 -19 172 -19 q 97 -19 53 31 q 10 81 10 169 q 10 279 60 391 q 110 502 210 615 q 277 691 351 748 q 424 804 440 804 q 444 804 448 801 q 451 798 451 795 q 451 788 417 764 q 383 741 358 721 q 309 682 256 618 q 203 554 153 473 z m 127 416 q 103 352 92 296 q 80 240 80 187 q 80 105 114 61 q 147 17 209 17 q 253 17 296 43 q 339 68 372 114 q 411 168 434 243 q 456 317 456 393 q 456 462 425 500 q 394 537 337 537 q 284 537 230 506 q 177 475 127 416 z"},"r":{"x_min":0,"x_max":308,"ha":308,"o":"m 71 0 l 9 0 q 38 92 53 164 q 68 235 68 279 q 68 300 65 306 q 63 312 56 312 q 44 312 26 284 q 7 257 2 257 q 0 257 -3 259 q -5 261 -5 264 q -5 267 1 279 q 7 290 19 308 q 37 335 54 350 q 72 364 88 364 q 109 364 118 347 q 128 331 128 293 q 128 278 125 259 q 123 239 117 210 q 157 293 189 328 q 221 364 254 364 q 270 364 279 355 q 288 346 288 331 q 288 307 271 289 q 253 270 231 270 q 220 270 206 277 q 192 283 188 283 q 176 283 149 235 q 122 187 106 128 z"},"2":{"x_min":0,"x_max":551,"ha":551,"o":"m 62 63 l 270 63 q 342 63 368 73 q 395 83 412 109 q 422 123 431 147 q 440 172 446 172 q 449 172 452 169 q 454 167 454 164 q 454 157 448 132 q 441 107 430 77 q 413 29 387 13 q 362 -4 300 -4 q 294 -4 257 -2 q 221 -1 190 -1 l 32 -1 q 7 -1 -17 -2 q -22 -3 -23 -3 q -30 -3 -34 0 q -38 3 -38 9 q -38 14 -33 21 q -27 29 -18 37 l 194 219 q 328 335 377 403 q 426 470 426 531 q 426 583 394 612 q 361 642 305 642 q 261 642 223 627 q 184 612 153 582 q 134 564 115 542 q 97 519 92 519 q 89 519 87 522 q 85 525 85 530 q 85 538 98 558 q 111 577 132 598 q 178 645 232 669 q 286 694 343 694 q 417 694 458 658 q 499 622 499 556 q 499 508 474 461 q 450 414 392 354 q 364 326 252 232 q 139 138 62 63 z"},"{":{"x_min":0,"x_max":356,"ha":356,"o":"m 142 31 l 116 -73 q 112 -88 110 -103 q 108 -118 108 -131 q 108 -152 115 -163 q 123 -174 141 -180 q 152 -184 169 -185 q 186 -186 186 -190 q 186 -198 177 -201 q 169 -204 147 -204 q 100 -204 74 -182 q 49 -159 49 -118 q 49 -102 52 -80 q 56 -59 62 -33 l 79 34 q 93 88 99 121 q 106 154 106 167 q 106 204 90 221 q 73 238 36 240 l 42 262 q 95 265 124 298 q 152 332 187 469 l 204 535 q 227 626 267 666 q 307 706 374 706 q 394 706 401 704 q 407 702 407 697 q 407 688 387 687 q 367 686 356 683 q 326 675 309 651 q 291 627 278 575 l 252 471 q 224 359 187 315 q 151 271 82 251 q 124 236 143 212 q 162 188 162 150 q 162 132 157 100 q 151 68 142 31 z"},"9":{"x_min":0,"x_max":551,"ha":551,"o":"m 396 196 q 333 140 274 111 q 216 82 166 82 q 104 82 66 125 q 28 167 28 237 q 28 321 63 414 q 99 507 158 576 q 207 633 264 664 q 321 695 378 695 q 456 695 497 643 q 539 592 539 496 q 539 447 526 391 q 512 335 487 277 q 452 198 406 130 q 360 63 304 8 q 235 -58 164 -104 q 92 -151 72 -151 q 68 -151 65 -148 q 62 -145 62 -140 q 62 -132 92 -117 q 123 -102 145 -87 q 218 -39 281 31 q 343 102 396 196 z m 422 254 q 446 320 458 377 q 469 434 469 487 q 469 572 435 615 q 401 659 336 659 q 297 659 254 632 q 210 605 178 560 q 138 504 115 429 q 93 354 93 277 q 93 207 124 169 q 155 131 212 131 q 265 131 318 162 q 371 193 422 254 z"}," ":{"x_min":0,"x_max":275,"ha":275,"o":""},"I":{"x_min":0,"x_max":385,"ha":385,"o":"m 187 191 q 182 168 172 125 q 163 82 153 31 q 223 21 243 16 q 263 10 263 2 q 263 -3 260 -5 q 256 -7 249 -7 q 246 -7 231 -5 q 167 2 108 2 q 68 2 26 -2 q -17 -7 -19 -7 q -26 -7 -29 -5 q -32 -3 -32 2 q -32 15 67 30 l 72 31 q 85 73 97 117 q 109 160 121 206 l 197 512 q 203 537 212 580 q 221 623 231 672 q 162 681 141 687 q 121 693 121 701 q 121 706 124 708 q 127 711 134 711 q 137 711 152 709 q 217 701 276 701 q 316 701 358 706 q 400 711 402 711 q 409 711 413 708 q 416 706 416 701 q 416 694 398 688 q 379 683 312 672 q 295 617 283 575 q 271 533 262 497 z"},"H":{"x_min":0,"x_max":806,"ha":806,"o":"m 230 367 l 579 367 l 617 512 q 622 532 631 576 q 641 621 651 672 q 582 681 561 687 q 541 693 541 701 q 541 706 544 708 q 548 711 555 711 q 558 711 573 709 q 637 701 696 701 q 736 701 778 706 q 820 711 822 711 q 829 711 833 708 q 836 706 836 701 q 836 694 818 688 q 799 683 732 672 q 719 629 707 585 q 694 542 683 497 l 607 191 q 602 168 592 125 q 583 82 573 31 q 643 21 663 16 q 683 10 683 2 q 683 -3 680 -5 q 677 -7 669 -7 q 666 -7 651 -5 q 587 2 528 2 q 488 2 446 -2 q 404 -7 402 -7 q 395 -7 391 -5 q 388 -3 388 2 q 388 15 487 30 l 492 31 q 509 85 521 131 q 534 176 541 206 l 573 344 l 225 344 l 187 191 q 182 169 172 126 q 163 83 153 31 q 223 21 243 16 q 263 10 263 2 q 263 -3 260 -5 q 256 -7 249 -7 q 246 -7 231 -5 q 167 2 108 2 q 68 2 26 -2 q -17 -7 -19 -7 q -26 -7 -29 -5 q -32 -3 -32 2 q -32 15 67 30 l 72 31 q 85 73 97 117 q 109 160 121 206 l 197 512 q 203 537 212 580 q 221 623 231 672 q 162 681 141 687 q 121 693 121 701 q 121 706 124 708 q 127 711 134 711 q 137 711 152 709 q 217 701 276 701 q 316 701 358 706 q 400 711 402 711 q 409 711 413 708 q 416 706 416 701 q 416 694 398 688 q 379 683 312 672 q 290 599 279 563 q 269 526 262 497 z"},"4":{"x_min":0,"x_max":551,"ha":551,"o":"m 271 166 l 151 166 q 90 166 26 159 q 12 157 9 157 q -5 157 -12 160 q -20 164 -20 170 q -20 183 1 205 q 6 210 8 212 l 452 691 q 454 693 457 696 q 469 710 478 710 q 482 710 484 706 q 487 703 487 697 q 487 691 466 630 q 444 568 429 508 l 348 191 l 394 191 q 406 191 427 193 q 449 196 486 202 l 469 153 q 442 159 420 163 q 398 166 384 166 l 342 166 l 308 31 q 367 25 395 19 q 423 12 423 2 q 423 -3 419 -5 q 416 -7 408 -7 q 406 -7 398 -6 q 336 2 268 2 q 200 2 138 -6 q 129 -7 128 -7 q 120 -7 116 -4 q 113 -2 113 3 q 113 13 143 20 q 173 26 236 31 z m 279 191 l 378 574 q 229 421 160 342 q 91 264 45 198 q 75 194 109 193 q 143 191 183 191 z"},"~":{"x_min":0,"x_max":833,"ha":833,"o":"m 747 366 l 747 311 q 697 276 650 259 q 604 241 558 241 q 510 241 431 269 q 421 272 417 274 l 409 277 q 323 308 276 308 q 235 308 190 290 q 146 271 87 230 l 87 285 q 139 321 186 338 q 232 356 276 356 q 327 356 409 326 q 414 324 417 323 q 422 321 433 317 q 514 288 558 288 q 600 288 645 307 q 689 325 747 366 z"},"D":{"x_min":0,"x_max":755,"ha":755,"o":"m 196 512 q 202 537 211 580 q 220 623 230 672 q 161 681 140 687 q 120 693 120 701 q 120 706 123 708 q 126 711 133 711 q 137 711 179 706 q 221 701 259 701 q 287 701 339 706 q 391 711 415 711 q 555 711 634 636 q 713 561 713 428 q 713 354 689 283 q 665 213 618 152 q 559 75 468 34 q 376 -7 265 -7 q 238 -7 186 -2 q 133 2 107 2 q 67 2 25 -2 q -17 -7 -19 -7 q -26 -7 -30 -5 q -33 -3 -33 2 q -33 15 66 30 l 71 31 q 84 73 96 117 q 108 160 120 206 z m 153 31 q 188 23 218 20 q 247 16 271 16 q 329 16 383 35 q 436 55 480 92 q 549 150 591 244 q 633 338 633 436 q 633 549 571 618 q 509 687 409 687 q 391 687 366 683 q 342 680 312 672 q 295 617 283 575 q 271 533 262 497 l 187 191 q 182 168 172 125 q 163 82 153 31 z"},"^":{"x_min":0,"x_max":1000,"ha":1000,"o":"m 459 714 l 540 714 l 797 438 l 754 438 l 499 658 l 243 438 l 201 438 z"},"0":{"x_min":0,"x_max":551,"ha":551,"o":"m 215 43 q 257 43 297 65 q 337 86 371 128 q 415 182 443 272 q 470 362 470 457 q 470 547 435 596 q 399 646 336 646 q 292 646 248 617 q 205 588 168 534 q 125 469 100 387 q 75 305 75 227 q 75 138 111 91 q 147 43 215 43 z m 168 -19 q 97 -19 55 36 q 13 90 13 183 q 13 254 41 337 q 68 421 119 503 q 177 597 244 645 q 312 694 384 694 q 454 694 496 640 q 538 586 538 495 q 538 422 513 344 q 489 266 441 187 q 384 93 309 37 q 234 -19 168 -19 z"},"F":{"x_min":0,"x_max":634,"ha":634,"o":"m 71 31 q 85 75 97 118 q 109 162 120 205 l 196 511 q 200 526 219 616 l 230 671 q 161 680 140 686 q 120 692 120 700 q 120 705 123 708 q 126 710 133 710 q 136 710 151 708 q 216 700 275 700 l 354 700 q 393 700 458 705 q 523 710 603 720 l 618 750 q 623 760 626 763 q 629 766 632 766 q 636 766 638 764 q 640 762 640 756 q 640 750 627 711 q 613 672 606 638 q 601 615 597 583 q 593 550 584 550 q 579 550 576 555 q 573 561 573 573 q 573 581 574 592 q 574 602 574 604 l 578 650 q 542 663 500 669 q 458 675 409 675 q 387 675 329 672 q 317 671 311 671 q 298 630 286 586 q 273 542 262 496 l 229 368 l 300 368 q 363 368 420 375 q 477 381 520 393 l 546 457 q 549 464 552 469 q 556 473 560 473 q 565 473 567 471 q 569 469 569 463 q 569 460 553 412 q 538 364 528 315 q 523 292 519 261 q 514 225 505 225 q 500 225 498 230 q 495 236 495 248 q 495 261 495 268 q 496 274 496 279 l 499 325 q 459 335 413 340 q 366 345 302 345 l 224 345 l 186 191 q 183 177 176 148 q 170 119 152 31 q 216 23 240 17 q 263 11 263 2 q 263 -3 260 -5 q 256 -7 249 -7 q 247 -7 204 -2 q 161 2 119 2 q 75 2 29 -3 q -17 -8 -19 -8 q -26 -8 -30 -5 q -33 -3 -33 2 q -33 15 66 30 z"},"`":{"x_min":0,"x_max":500,"ha":500,"o":"m 269 560 l 374 413 l 341 413 l 222 513 q 206 527 200 536 q 194 545 194 555 q 194 568 204 578 q 213 588 227 588 q 237 588 248 581 q 259 574 269 560 z"},"k":{"x_min":0,"x_max":456,"ha":456,"o":"m 107 184 q 116 183 126 183 q 135 182 151 182 q 228 182 272 207 q 316 231 316 273 q 316 291 302 302 q 288 312 264 312 q 217 312 178 280 q 140 249 107 184 z m -30 0 l 155 737 q 157 748 158 755 q 159 763 159 770 q 159 780 156 787 q 152 793 146 793 q 133 793 114 761 q 94 730 89 730 q 85 730 84 732 q 82 734 82 739 q 82 745 91 762 q 100 779 114 799 q 135 828 152 839 q 168 851 186 851 q 207 851 218 839 q 228 827 228 804 q 228 793 225 775 q 222 757 216 734 l 66 135 q 119 254 174 308 q 228 362 295 362 q 334 362 356 343 q 378 324 378 289 q 378 232 327 202 q 277 171 175 166 q 238 88 265 64 q 292 40 311 40 q 324 40 332 48 q 340 56 344 72 q 346 79 347 88 q 350 103 354 103 q 357 103 359 99 q 361 96 361 87 q 361 42 339 14 q 317 -13 281 -13 q 234 -13 141 103 q 111 139 94 159 q 74 119 57 79 q 40 39 27 0 z"},"u":{"x_min":0,"x_max":491,"ha":491,"o":"m 338 350 l 401 350 q 393 332 385 310 q 378 289 370 262 l 342 174 q 331 137 324 105 q 317 73 317 58 q 317 48 320 43 q 324 38 330 38 q 343 38 360 65 q 378 93 383 93 q 386 93 389 91 q 391 89 391 86 q 391 82 385 73 q 380 63 364 41 q 345 15 323 0 q 302 -14 282 -14 q 266 -14 259 -7 q 253 0 253 19 q 253 33 262 72 l 262 74 l 287 184 q 239 85 187 35 q 136 -14 80 -14 q 47 -14 31 1 q 14 16 14 45 q 14 67 38 136 q 41 145 43 150 l 91 291 q 91 292 92 295 q 96 308 96 311 q 96 317 94 321 q 91 325 86 325 q 68 325 45 297 q 22 269 19 269 q 15 269 13 271 q 11 273 11 277 q 11 284 19 295 q 26 307 39 319 q 61 340 84 352 q 106 364 124 364 q 141 364 150 355 q 158 346 158 327 q 158 298 138 242 q 135 234 133 229 l 93 112 q 86 93 84 82 q 81 70 81 62 q 81 47 89 40 q 97 33 115 33 q 167 33 226 116 q 285 199 338 350 z"},"]":{"x_min":0,"x_max":301,"ha":301,"o":"m 210 679 l 140 679 q 127 679 121 682 q 115 686 115 692 q 115 698 119 700 q 122 703 138 703 l 283 703 l 70 -153 l -78 -153 q -91 -153 -97 -150 q -104 -147 -104 -141 q -104 -135 -100 -132 q -95 -129 -81 -129 l 9 -129 z"},"U":{"x_min":0,"x_max":800,"ha":800,"o":"m 697 672 q 627 681 607 687 q 587 693 587 701 q 587 706 590 708 q 594 711 601 711 q 604 711 645 706 q 686 701 724 701 q 761 701 802 706 q 843 711 847 711 q 854 711 857 708 q 861 706 861 701 q 861 694 843 688 q 826 683 760 672 q 741 626 708 513 l 706 506 l 642 284 q 615 192 599 154 q 583 115 565 91 q 522 35 469 8 q 417 -19 348 -19 q 240 -19 176 38 q 111 96 111 190 q 111 208 115 231 q 118 254 125 281 l 185 512 q 190 533 199 577 q 208 621 219 672 q 148 682 128 687 q 108 693 108 701 q 108 706 111 708 q 115 711 122 711 q 125 711 140 709 q 204 701 263 701 q 303 701 345 706 q 388 711 390 711 q 397 711 400 708 q 403 706 403 701 q 403 694 385 688 q 366 683 300 672 q 278 599 267 563 q 257 526 250 497 l 202 302 q 192 262 187 228 q 182 194 182 169 q 182 95 230 52 q 278 8 359 8 q 419 8 467 33 q 514 58 550 109 q 570 137 593 203 q 616 269 637 361 l 677 533 q 685 565 689 599 q 694 633 697 672 z"},"o":{"x_min":0,"x_max":410,"ha":410,"o":"m 134 28 q 170 28 196 40 q 221 53 234 76 q 253 111 265 153 q 276 196 276 234 q 276 275 256 295 q 237 316 198 316 q 158 316 130 306 q 103 296 86 277 q 63 250 49 206 q 35 162 35 117 q 35 76 62 52 q 88 28 134 28 z m 93 -14 q 35 -14 3 18 q -30 50 -30 106 q -30 147 -8 193 q 14 238 52 277 q 93 318 140 341 q 188 363 233 363 q 280 363 311 334 q 343 306 343 265 q 343 217 330 174 q 317 130 294 97 q 278 75 254 55 q 230 35 199 18 q 168 2 142 -6 q 116 -14 93 -14 z"},"N":{"x_min":0,"x_max":764,"ha":764,"o":"m 599 375 q 620 455 634 528 q 647 602 656 672 q 587 682 567 687 q 547 693 547 701 q 547 706 550 708 q 554 711 561 711 q 566 711 606 706 q 646 701 680 701 q 714 701 753 706 q 793 711 798 711 q 805 711 809 708 q 812 706 812 701 q 812 690 734 674 l 723 672 q 698 619 673 540 q 647 461 621 356 l 537 23 q 536 18 534 10 q 526 -19 520 -19 q 516 -19 512 -16 q 509 -12 503 -1 l 234 570 l 170 329 q 151 259 137 185 q 123 110 113 31 q 182 21 202 16 q 222 10 222 2 q 222 -3 219 -5 q 216 -7 209 -7 q 207 -7 165 -2 q 123 2 84 2 q 54 2 16 -2 q -22 -7 -29 -7 q -36 -7 -39 -5 q -42 -3 -42 2 q -42 14 38 29 l 46 31 q 70 81 93 151 q 115 221 148 347 l 214 602 l 202 625 q 191 647 177 661 q 164 675 148 682 q 140 686 124 689 q 106 694 106 701 q 106 706 109 708 q 113 711 120 711 q 123 711 133 710 q 173 705 209 705 q 226 705 234 705 q 243 706 251 706 l 531 116 z"},"+":{"x_min":0,"x_max":833,"ha":833,"o":"m 393 596 l 441 596 l 441 322 l 709 322 l 709 274 l 441 274 l 441 0 l 393 0 l 393 274 l 124 274 l 124 322 l 393 322 z"},"G":{"x_min":0,"x_max":721,"ha":721,"o":"m 592 84 q 562 79 544 73 q 526 68 513 62 q 499 55 470 39 q 368 -19 294 -19 q 179 -19 108 56 q 37 131 37 252 q 37 349 69 434 q 101 520 161 586 q 221 652 295 687 q 370 722 450 722 q 497 722 545 708 q 593 694 644 666 l 663 707 q 670 723 674 729 q 678 734 682 734 q 687 734 689 731 q 692 729 692 724 q 692 722 677 677 q 662 632 653 584 q 645 543 641 496 q 637 448 628 448 q 623 448 620 455 q 618 461 618 477 q 618 497 620 522 q 622 548 625 577 q 576 635 526 663 q 475 690 417 690 q 362 690 316 669 q 270 648 230 606 q 178 549 146 462 q 114 375 114 286 q 114 168 174 96 q 234 23 329 23 q 377 23 427 46 q 478 70 525 114 l 542 215 q 546 241 549 269 q 552 296 553 324 q 543 326 527 329 q 458 343 458 353 q 458 358 461 360 q 464 362 472 362 q 476 362 489 360 q 535 355 575 355 q 620 355 665 361 q 673 362 675 362 q 683 362 686 360 q 689 358 689 353 q 689 344 642 329 q 636 327 632 326 q 616 270 606 210 q 596 149 592 84 z"},"q":{"x_min":0,"x_max":428,"ha":428,"o":"m 367 351 q 347 296 312 159 l 310 151 l 237 -129 q 235 -136 234 -144 q 233 -152 233 -162 q 233 -172 237 -178 q 240 -184 246 -184 q 259 -184 279 -153 q 298 -121 303 -121 q 306 -121 308 -123 q 310 -125 310 -129 q 310 -136 303 -150 q 295 -163 281 -182 q 262 -208 244 -220 q 227 -232 209 -232 q 188 -232 177 -220 q 167 -208 167 -182 q 167 -172 170 -154 q 173 -136 179 -115 l 238 104 q 190 45 145 15 q 100 -14 57 -14 q 18 -14 -5 13 q -29 40 -29 85 q -29 134 -10 182 q 9 230 45 271 q 85 317 140 340 q 196 362 272 362 q 294 362 318 359 q 342 356 367 351 z m 285 300 q 257 309 233 313 q 209 318 188 318 q 112 318 71 266 q 30 213 30 118 q 30 78 47 57 q 65 35 97 35 q 165 35 215 106 q 266 177 285 300 z"},"d":{"x_min":0,"x_max":468,"ha":468,"o":"m 297 298 q 253 311 226 317 q 198 323 183 323 q 156 323 133 311 q 109 299 93 277 q 67 242 52 197 q 37 151 37 110 q 37 76 53 59 q 69 42 102 42 q 173 42 222 107 q 272 172 297 298 z m 249 104 q 194 41 152 13 q 111 -14 71 -14 q 26 -14 -2 15 q -30 44 -30 91 q -30 123 -16 159 q -2 195 24 233 q 66 293 118 328 q 170 363 216 363 q 231 363 253 358 q 274 354 308 344 l 406 738 q 409 749 410 757 q 411 766 411 771 q 411 781 407 788 q 403 794 398 794 q 385 794 366 762 q 347 730 342 730 q 338 730 336 733 q 334 735 334 740 q 334 746 343 762 q 352 779 366 799 q 388 829 404 840 q 420 852 438 852 q 459 852 469 840 q 480 828 480 805 q 480 794 478 779 q 475 764 468 735 l 333 199 q 312 116 306 87 q 299 59 299 53 q 299 44 302 39 q 306 34 312 34 q 323 34 344 59 q 365 84 371 84 q 373 84 375 83 q 377 81 377 79 q 377 73 369 60 q 361 46 348 32 q 329 10 310 -1 q 292 -13 275 -13 q 256 -13 246 0 q 236 13 236 36 q 236 48 239 64 q 242 80 249 104 z"},"1":{"x_min":0,"x_max":551,"ha":551,"o":"m 314 630 q 285 625 255 623 q 225 620 195 620 q 172 620 167 622 q 161 624 161 629 q 161 638 202 644 q 243 649 273 657 q 312 667 348 680 q 384 694 386 694 q 390 694 394 690 q 397 687 397 683 q 397 681 387 644 q 376 607 368 571 l 281 192 q 270 140 262 104 q 254 67 247 31 q 314 25 344 19 q 374 12 374 3 q 374 -2 371 -4 q 367 -7 360 -7 q 358 -7 348 -6 q 278 2 202 2 q 127 2 57 -6 q 46 -7 44 -7 q 37 -7 33 -4 q 30 -2 30 3 q 30 13 63 20 q 97 26 166 31 q 182 84 195 130 q 208 175 215 207 z"},"5":{"x_min":0,"x_max":551,"ha":551,"o":"m 128 424 q 166 434 200 439 q 235 444 267 444 q 366 444 420 406 q 473 368 473 297 q 473 244 448 184 q 423 124 384 82 q 334 30 279 5 q 225 -19 158 -19 q 83 -19 43 10 q 2 39 2 91 q 2 110 10 140 q 18 169 33 205 q 39 218 43 223 q 47 228 52 228 q 55 228 56 226 q 58 224 58 220 q 58 218 49 189 q 39 161 39 136 q 39 93 89 63 q 138 34 214 34 q 308 34 367 93 q 427 151 427 243 q 427 308 387 342 q 348 376 272 376 q 192 376 106 343 q 87 336 83 336 q 78 336 76 338 q 74 339 74 344 q 74 348 86 379 q 146 531 186 691 q 246 673 302 665 q 359 656 414 656 q 451 656 469 663 q 486 671 500 689 q 509 701 520 719 q 530 737 535 737 q 539 737 541 735 q 543 733 543 731 q 543 729 535 712 q 528 696 517 675 q 488 622 466 609 q 444 595 400 595 q 360 595 306 602 q 252 608 190 620 z"}}}
